<svg width="205" height="65" viewBox="0 0 205 65" fill="none" xmlns="http://www.w3.org/2000/svg">
<path d="M30.5625 46.0156L31.6953 43.2031H41.3047L42.4375 46.0156H30.5625ZM28.375 51.6406L29.4688 48.8281H43.4922L44.7031 51.6406H28.375ZM26.1875 57.2656L27.2812 54.4531H45.7188L46.8906 57.2656H26.1875ZM3.33594 65H0.289062L25.875 0.3125H28.9219L54.4688 65H51.4609L27.3984 4.10156L3.33594 65ZM27.75 10.7812L29.3516 14.375L9.35156 65H6.34375L27.75 10.7812ZM30.875 18.2031L32.3594 22.0703L15.4453 65H12.3984L30.875 18.2031ZM33.8438 25.9375L35.3281 29.8828L21.4609 65H18.4531L33.8438 25.9375ZM72.6328 65H69.5859L44.0391 0.3125H47.0469L72.6328 65ZM40.9922 0.3125L66.5781 65H63.5703L37.9844 0.3125H40.9922ZM34.9375 0.3125L60.5234 65H57.4766L31.9297 0.3125H34.9375ZM98.8047 32.8125H115.758C118.336 32.8125 120.51 31.9792 122.281 30.3125C124.078 28.6458 124.977 26.276 124.977 23.2031C124.977 20.9375 124.039 18.9062 122.164 17.1094C120.289 15.2865 118.154 14.375 115.758 14.375H91.6172V65H88.8047V11.5625H115.758C118.935 11.5625 121.734 12.7474 124.156 15.1172C126.578 17.4609 127.789 20.1562 127.789 23.2031C127.789 26.9531 126.617 29.9609 124.273 32.2266C121.93 34.4922 119.091 35.625 115.758 35.625H98.8047V32.8125ZM98.8047 38.4375H115.758C119.82 38.4375 123.31 37.0182 126.227 34.1797C129.143 31.3151 130.602 27.6562 130.602 23.2031C130.602 19.375 129.104 16.0156 126.109 13.125C123.141 10.2083 119.69 8.75 115.758 8.75H85.9922V65H83.1797V5.9375H115.758C118.857 5.9375 121.76 6.73177 124.469 8.32031C127.203 9.90885 129.378 12.0443 130.992 14.7266C132.607 17.3828 133.414 20.2083 133.414 23.2031C133.414 28.3333 131.669 32.6302 128.18 36.0938C124.716 39.5312 120.576 41.25 115.758 41.25H98.8047V38.4375ZM98.8047 44.0625H115.758C119.404 44.0625 122.789 43.1641 125.914 41.3672C129.039 39.5703 131.539 37.0703 133.414 33.8672C135.289 30.638 136.227 27.0833 136.227 23.2031C136.227 19.6875 135.289 16.3932 133.414 13.3203C131.565 10.2214 129.065 7.7474 125.914 5.89844C122.763 4.04948 119.378 3.125 115.758 3.125H80.3672V65H77.5547V0.3125H115.758C119.846 0.3125 123.688 1.36719 127.281 3.47656C130.875 5.5599 133.727 8.3724 135.836 11.9141C137.971 15.4297 139.039 19.1927 139.039 23.2031C139.039 27.8385 138.036 31.9141 136.031 35.4297C134.052 38.9453 131.357 41.6927 127.945 43.6719L135.211 65H132.242L125.289 45C124.247 45.4167 123.453 45.7031 122.906 45.8594L129.43 65H126.461L120.094 46.5234C119.859 46.5755 119.026 46.6667 117.594 46.7969L123.648 65H120.68L114.703 46.875H112.164L117.867 65H114.898L109.156 46.875H98.8047V44.0625ZM97.2422 65H94.4297V17.1875H115.758C117.503 17.1875 119 17.7865 120.25 18.9844C121.526 20.1562 122.164 21.5625 122.164 23.2031C122.164 27.7344 120.029 30 115.758 30H98.8047V27.1875H115.758C116.878 27.1875 117.75 26.901 118.375 26.3281C119.026 25.7292 119.352 24.6875 119.352 23.2031C119.352 22.2917 119 21.5365 118.297 20.9375C117.62 20.3125 116.773 20 115.758 20H97.2422V65ZM164.742 65H161.93V0.3125H164.742V65ZM159.117 65H156.305V0.3125H159.117V65ZM153.492 65H150.68V0.3125H153.492V65ZM147.867 65H145.055V0.3125H147.867V65ZM185.289 32.6562L201.812 0.3125H204.938L188.414 32.6562L204.938 65H201.812L185.289 32.6562ZM179 32.6562L195.523 0.3125H198.648L182.125 32.6562L198.648 65H195.523L179 32.6562ZM172.711 32.6562L189.234 0.3125H192.359L175.836 32.6562L192.359 65H189.234L172.711 32.6562ZM166.383 32.6562L182.945 0.3125H186.07L169.508 32.6562L186.07 65H182.945L166.383 32.6562Z" fill="black"/>
</svg>
